<?xml version="1.0" encoding="UTF-8" standalone="no"?>
<!-- Created with Inkscape -->
<svg
   xmlns:dc="http://purl.org/dc/elements/1.1/"
   xmlns:cc="http://creativecommons.org/ns#"
   xmlns:rdf="http://www.w3.org/1999/02/22-rdf-syntax-ns#"
   xmlns:svg="http://www.w3.org/2000/svg"
   xmlns="http://www.w3.org/2000/svg"
   xmlns:xlink="http://www.w3.org/1999/xlink"
   xmlns:sodipodi="http://sodipodi.sourceforge.net/DTD/sodipodi-0.dtd"
   xmlns:inkscape="http://www.inkscape.org/namespaces/inkscape"
   version="1.1"
   width="128"
   height="128"
   viewBox="0 0 128 128"
   overflow="visible"
   enable-background="new 0 0 128 128"
   xml:space="preserve"
   id="svg2"
   sodipodi:version="0.32"
   inkscape:version="0.46"
   sodipodi:docname="reload-windows-list.svg"
   inkscape:output_extension="org.inkscape.output.svg.inkscape"><metadata
   id="metadata93"><rdf:RDF><cc:Work
       rdf:about=""><dc:format>image/svg+xml</dc:format><dc:type
         rdf:resource="http://purl.org/dc/dcmitype/StillImage" /></cc:Work></rdf:RDF></metadata><defs
   id="defs91"><inkscape:perspective
     sodipodi:type="inkscape:persp3d"
     inkscape:vp_x="0 : 64 : 1"
     inkscape:vp_y="0 : 1000 : 0"
     inkscape:vp_z="128 : 64 : 1"
     inkscape:persp3d-origin="64 : 42.666667 : 1"
     id="perspective95" /><linearGradient
     id="linearGradient2193"><stop
       id="stop2195"
       offset="0"
       style="stop-color:#7c2f03;stop-opacity:1" /><stop
       id="stop2197"
       offset="1"
       style="stop-color:#ff9730;stop-opacity:1" /></linearGradient><inkscape:perspective
     id="perspective39"
     inkscape:persp3d-origin="24 : 16 : 1"
     inkscape:vp_z="48 : 24 : 1"
     inkscape:vp_y="0 : 1000 : 0"
     inkscape:vp_x="0 : 24 : 1"
     sodipodi:type="inkscape:persp3d" /><linearGradient
     y2="13.408723"
     x2="9.5"
     y1="16.26436"
     x1="9.5"
     gradientTransform="translate(4,5)"
     gradientUnits="userSpaceOnUse"
     id="linearGradient2886"
     xlink:href="#linearGradient3690"
     inkscape:collect="always" /><linearGradient
     y2="12.403291"
     x2="23.069359"
     y1="6.7993021"
     x1="23.069359"
     gradientTransform="translate(4,5)"
     gradientUnits="userSpaceOnUse"
     id="linearGradient2884"
     xlink:href="#linearGradient3674"
     inkscape:collect="always" /><linearGradient
     y2="19.53867"
     x2="24.925514"
     y1="40.000107"
     x1="24.925514"
     gradientTransform="translate(4,5)"
     gradientUnits="userSpaceOnUse"
     id="linearGradient2882"
     xlink:href="#linearGradient2781"
     inkscape:collect="always" /><linearGradient
     y2="13.408723"
     x2="9.5"
     y1="16.26436"
     x1="9.5"
     gradientTransform="translate(5,-6)"
     gradientUnits="userSpaceOnUse"
     id="linearGradient2850"
     xlink:href="#linearGradient3690"
     inkscape:collect="always" /><linearGradient
     y2="12.403291"
     x2="23.069359"
     y1="6.7993021"
     x1="23.069359"
     gradientTransform="translate(5,-6)"
     gradientUnits="userSpaceOnUse"
     id="linearGradient2848"
     xlink:href="#linearGradient3674"
     inkscape:collect="always" /><linearGradient
     y2="19.53867"
     x2="24.925514"
     y1="40.000107"
     x1="24.925514"
     gradientTransform="translate(5,-6)"
     gradientUnits="userSpaceOnUse"
     id="linearGradient2846"
     xlink:href="#linearGradient2781"
     inkscape:collect="always" /><linearGradient
     id="linearGradient2781"><stop
       id="stop2783"
       offset="0"
       style="stop-color:#d3d7cf;stop-opacity:1" /><stop
       id="stop2785"
       offset="1"
       style="stop-color:#eeeeec;stop-opacity:1" /></linearGradient><linearGradient
     id="linearGradient3674"><stop
       id="stop3676"
       offset="0"
       style="stop-color:#3465a4;stop-opacity:1" /><stop
       id="stop3678"
       offset="1"
       style="stop-color:#729fcf;stop-opacity:1;" /></linearGradient><linearGradient
     id="linearGradient3690"><stop
       id="stop3692"
       offset="0"
       style="stop-color:white;stop-opacity:1;" /><stop
       id="stop3694"
       offset="1"
       style="stop-color:white;stop-opacity:0.46875" /></linearGradient><inkscape:perspective
     id="perspective2454"
     inkscape:persp3d-origin="24 : 16 : 1"
     inkscape:vp_z="48 : 24 : 1"
     inkscape:vp_y="0 : 1000 : 0"
     inkscape:vp_x="0 : 24 : 1"
     sodipodi:type="inkscape:persp3d" /><linearGradient
     inkscape:collect="always"
     xlink:href="#linearGradient2781"
     id="linearGradient2653"
     gradientUnits="userSpaceOnUse"
     gradientTransform="translate(4,5)"
     x1="24.925514"
     y1="40.000107"
     x2="24.925514"
     y2="19.53867" /><linearGradient
     inkscape:collect="always"
     xlink:href="#linearGradient3674"
     id="linearGradient2655"
     gradientUnits="userSpaceOnUse"
     gradientTransform="translate(4,5)"
     x1="23.069359"
     y1="6.7993021"
     x2="23.069359"
     y2="12.403291" /><linearGradient
     inkscape:collect="always"
     xlink:href="#linearGradient3690"
     id="linearGradient2657"
     gradientUnits="userSpaceOnUse"
     gradientTransform="translate(4,5)"
     x1="9.5"
     y1="16.26436"
     x2="9.5"
     y2="13.408723" /><linearGradient
     inkscape:collect="always"
     xlink:href="#linearGradient2781"
     id="linearGradient2461"
     gradientUnits="userSpaceOnUse"
     gradientTransform="translate(5,-6)"
     x1="24.925514"
     y1="40.000107"
     x2="24.925514"
     y2="19.53867" /><linearGradient
     inkscape:collect="always"
     xlink:href="#linearGradient3674"
     id="linearGradient2463"
     gradientUnits="userSpaceOnUse"
     gradientTransform="translate(5,-6)"
     x1="23.069359"
     y1="6.7993021"
     x2="23.069359"
     y2="12.403291" /><linearGradient
     inkscape:collect="always"
     xlink:href="#linearGradient3690"
     id="linearGradient2465"
     gradientUnits="userSpaceOnUse"
     gradientTransform="translate(5,-6)"
     x1="9.5"
     y1="16.26436"
     x2="9.5"
     y2="13.408723" /><linearGradient
     inkscape:collect="always"
     xlink:href="#linearGradient2781"
     id="linearGradient2475"
     gradientUnits="userSpaceOnUse"
     gradientTransform="translate(5,-6)"
     x1="24.925514"
     y1="40.000107"
     x2="24.925514"
     y2="19.53867" /><linearGradient
     inkscape:collect="always"
     xlink:href="#linearGradient3674"
     id="linearGradient2477"
     gradientUnits="userSpaceOnUse"
     gradientTransform="translate(5,-6)"
     x1="23.069359"
     y1="6.7993021"
     x2="23.069359"
     y2="12.403291" /><linearGradient
     inkscape:collect="always"
     xlink:href="#linearGradient3690"
     id="linearGradient2479"
     gradientUnits="userSpaceOnUse"
     gradientTransform="translate(5,-6)"
     x1="9.5"
     y1="16.26436"
     x2="9.5"
     y2="13.408723" /></defs><sodipodi:namedview
   inkscape:window-height="713"
   inkscape:window-width="641"
   inkscape:pageshadow="2"
   inkscape:pageopacity="0.0"
   guidetolerance="10.0"
   gridtolerance="10.0"
   objecttolerance="10.0"
   borderopacity="1.0"
   bordercolor="#666666"
   pagecolor="#ffffff"
   id="base"
   showgrid="false"
   inkscape:zoom="3.859375"
   inkscape:cx="62.427371"
   inkscape:cy="62.689306"
   inkscape:window-x="142"
   inkscape:window-y="25"
   inkscape:current-layer="layer1"
   showguides="true"
   inkscape:guide-bbox="true" />
	<path
   opacity="0.2"
   d="M76,14c-0.553,0-1,0.448-1,1v34c0,0.404,0.244,0.769,0.617,0.924c0.374,0.155,0.804,0.069,1.09-0.217   c0,0,8.8-8.8,9.912-9.912C95.622,46.409,101,56.872,101,68c0,19.299-15.602,35-34.901,35c-0.553,0-1,0.447-1,1v18   c0,0.553,0.447,1,1,1C96.426,123,121,98.327,121,68c0-16.275-7.531-32.033-20.14-42.446c1.293-1.293,9.847-9.847,9.847-9.847   C110.898,15.516,111,15.26,111,15c0-0.129-0.025-0.259-0.076-0.383C110.77,14.244,110.404,14,110,14H76z"
   id="path4" />
	<path
   opacity="0.2"
   d="M54,114c0.553,0,1-0.447,1-1V79c0-0.404-0.244-0.77-0.617-0.924c-0.374-0.154-0.804-0.068-1.09,0.217   c0,0-8.8,8.8-9.912,9.912C34.378,81.591,29,71.129,29,60c0-19.299,15.602-35,34.901-35c0.553,0,1-0.448,1-1V6c0-0.552-0.447-1-1-1   C33.574,5,9,29.673,9,60c0,16.275,7.531,32.033,20.14,42.446c-1.293,1.293-9.847,9.847-9.847,9.847   C19.102,112.484,19,112.74,19,113c0,0.129,0.025,0.259,0.076,0.383C19.23,113.756,19.596,114,20,114H54z"
   id="path6" />
	<path
   opacity="0.2"
   d="M76,13c-1.103,0-2,0.897-2,2v34c0,0.812,0.484,1.537,1.234,1.848c0.75,0.311,1.605,0.14,2.18-0.433   c0,0,7.096-7.095,9.27-9.269C95.02,47.597,100,57.554,100,68c0,18.748-15.208,34-33.901,34c-1.103,0-2,0.896-2,2v18   c0,1.104,0.897,2,2,2C96.923,124,122,98.879,122,68c0-16.096-7.367-31.867-19.698-42.473c1.257-1.257,9.112-9.113,9.112-9.113   C111.792,16.036,112,15.534,112,15l-0.15-0.762C111.538,13.485,110.813,13,110,13H76z"
   id="path8" />
	<linearGradient
   id="XMLID_9_"
   gradientUnits="userSpaceOnUse"
   x1="65.0986"
   y1="67.5"
   x2="121"
   y2="67.5">
		<stop
   offset="0"
   style="stop-color:#295AA6"
   id="stop11" />
		<stop
   offset="0.3319"
   style="stop-color:#27569F"
   id="stop13" />
		<stop
   offset="0.8192"
   style="stop-color:#224C8B"
   id="stop15" />
		<stop
   offset="1"
   style="stop-color:#1F4782"
   id="stop17" />
	</linearGradient>
	<path
   fill="url(#XMLID_9_)"
   d="M76,13c-0.553,0-1,0.448-1,1v34c0,0.404,0.244,0.769,0.617,0.924   c0.374,0.155,0.804,0.069,1.09-0.217c0,0,8.8-8.8,9.912-9.912C95.622,45.409,101,55.872,101,67c0,19.299-15.602,35-34.901,35   c-0.553,0-1,0.447-1,1v18c0,0.553,0.447,1,1,1C96.426,122,121,97.327,121,67c0-16.275-7.531-32.033-20.14-42.446   c1.293-1.293,9.847-9.847,9.847-9.847C110.898,14.516,111,14.26,111,14c0-0.129-0.025-0.259-0.076-0.383   C110.77,13.244,110.404,13,110,13H76z"
   id="path19" />
	<linearGradient
   id="XMLID_10_"
   gradientUnits="userSpaceOnUse"
   x1="98.1133"
   y1="117.6191"
   x2="74.4431"
   y2="-4.7358">
		<stop
   offset="0"
   style="stop-color:#3371CF"
   id="stop22" />
		<stop
   offset="0.5072"
   style="stop-color:#2A5FAE"
   id="stop24" />
		<stop
   offset="1"
   style="stop-color:#214B8A"
   id="stop26" />
	</linearGradient>
	<path
   fill="url(#XMLID_10_)"
   d="M99.405,24.595L110,14H76v34l10.541-10.541C96.077,44.125,102,55.16,102,67   c0,19.851-16.051,36-35.901,36v18C95.875,121,120,96.775,120,67C120,50.333,112.188,34.715,99.405,24.595z"
   id="path28" />
	<path
   fill="#5487D6"
   d="M119.986,66.536C119.697,96.064,95.695,120,66.099,120v1C95.875,121,120,96.775,120,67   C120,66.845,119.988,66.691,119.986,66.536z"
   id="path30" />
	<linearGradient
   id="XMLID_11_"
   gradientUnits="userSpaceOnUse"
   x1="78.252"
   y1="10.0327"
   x2="105.918"
   y2="49.3657">
		<stop
   offset="0"
   style="stop-color:#839DC4"
   id="stop33" />
		<stop
   offset="1"
   style="stop-color:#6789BA"
   id="stop35" />
	</linearGradient>
	<path
   fill="url(#XMLID_11_)"
   d="M112.608,39.821c-3.396-5.818-7.866-11.001-13.203-15.227L110,14H76v34l10.541-10.541   c2.815,1.968,4.681,3.352,6.807,5.991L112.608,39.821z"
   id="path37" />
	<linearGradient
   id="XMLID_12_"
   gradientUnits="userSpaceOnUse"
   x1="-6.25"
   y1="26.9766"
   x2="116.7498"
   y2="26.9766">
		<stop
   offset="0"
   style="stop-color:#90A5C4"
   id="stop40" />
		<stop
   offset="0.4719"
   style="stop-color:#D0E0FB"
   id="stop42" />
		<stop
   offset="0.8119"
   style="stop-color:#ACBAD5"
   id="stop44" />
		<stop
   offset="1"
   style="stop-color:#9DAAC5"
   id="stop46" />
	</linearGradient>
	<path
   fill="url(#XMLID_12_)"
   d="M99.951,25.048l-0.546,0.546c5.067,4.012,9.342,8.896,12.669,14.358l0.534-0.132   C109.33,34.206,105.044,29.19,99.951,25.048z M110,14H76v1h33L110,14z"
   id="path48" />
	<path
   opacity="0.2"
   d="M8,60c0,16.096,7.367,31.867,19.698,42.473c-1.257,1.258-9.112,9.113-9.112,9.113   C18.208,111.964,18,112.466,18,113l0.15,0.762C18.462,114.516,19.188,115,20,115h34c1.103,0,2-0.896,2-2V79   c0-0.811-0.484-1.537-1.234-1.848s-1.605-0.141-2.18,0.434c0,0-7.096,7.095-9.27,9.269C34.98,80.402,30,70.445,30,60   c0-18.748,15.208-34,33.901-34c1.103,0,2-0.897,2-2V6c0-1.103-0.897-2-2-2C33.077,4,8,29.122,8,60z"
   id="path50" />
	<linearGradient
   id="XMLID_13_"
   gradientUnits="userSpaceOnUse"
   x1="33.1445"
   y1="0.1035"
   x2="46.1445"
   y2="114.1035">
		<stop
   offset="0"
   style="stop-color:#295AA6"
   id="stop53" />
		<stop
   offset="0.3319"
   style="stop-color:#27569F"
   id="stop55" />
		<stop
   offset="0.8192"
   style="stop-color:#224C8B"
   id="stop57" />
		<stop
   offset="1"
   style="stop-color:#1F4782"
   id="stop59" />
	</linearGradient>
	<path
   fill="url(#XMLID_13_)"
   d="M54,113c0.553,0,1-0.447,1-1V78c0-0.404-0.244-0.77-0.617-0.924   c-0.374-0.154-0.804-0.068-1.09,0.217c0,0-8.8,8.8-9.912,9.912C34.378,80.591,29,70.129,29,59c0-19.299,15.602-35,34.901-35   c0.553,0,1-0.448,1-1V5c0-0.552-0.447-1-1-1C33.574,4,9,28.673,9,59c0,16.275,7.531,32.033,20.14,42.446   c-1.293,1.293-9.847,9.847-9.847,9.847C19.102,111.484,19,111.74,19,112c0,0.129,0.025,0.259,0.076,0.383   C19.23,112.756,19.596,113,20,113H54z"
   id="path61" />
	<linearGradient
   id="XMLID_14_"
   gradientUnits="userSpaceOnUse"
   x1="36.9512"
   y1="114"
   x2="36.9512"
   y2="6.7496">
		<stop
   offset="0"
   style="stop-color:#3371CF"
   id="stop64" />
		<stop
   offset="0.5072"
   style="stop-color:#2A5FAE"
   id="stop66" />
		<stop
   offset="1"
   style="stop-color:#214B8A"
   id="stop68" />
	</linearGradient>
	<path
   fill="url(#XMLID_14_)"
   d="M30.595,101.405L20,112h34V78L43.459,88.541C33.923,81.875,28,70.84,28,59   c0-19.851,16.051-36,35.901-36V5C34.125,5,10,29.224,10,59C10,75.666,17.812,91.285,30.595,101.405z"
   id="path70" />
	<path
   fill="#5081CC"
   d="M30.051,100.949l0.544-0.544c-12.664-10.026-20.438-25.45-20.581-41.941C10.012,58.644,10,58.82,10,59   C10,75.424,17.597,90.819,30.051,100.949z M20,112h34v-1H21L20,112z"
   id="path72" />
	<linearGradient
   id="XMLID_15_"
   gradientUnits="userSpaceOnUse"
   x1="53.4395"
   y1="2.8052"
   x2="12.9391"
   y2="80.3058">
		<stop
   offset="0"
   style="stop-color:#839DC4"
   id="stop75" />
		<stop
   offset="1"
   style="stop-color:#6789BA"
   id="stop77" />
	</linearGradient>
	<path
   fill="url(#XMLID_15_)"
   d="M12.238,74.308C10.775,69.402,10,64.253,10,59C10,29.224,34.125,5,63.901,5v18   C44.051,23,28,39.149,28,59c0,2.844,0.342,5.643,0.993,8.344L12.238,74.308z"
   id="path79" />
	<linearGradient
   id="XMLID_16_"
   gradientUnits="userSpaceOnUse"
   x1="81.5479"
   y1="-17.3154"
   x2="-3.4521"
   y2="59.4346">
		<stop
   offset="0"
   style="stop-color:#D0E0FB"
   id="stop82" />
		<stop
   offset="0.6438"
   style="stop-color:#ACBAD5"
   id="stop84" />
		<stop
   offset="1"
   style="stop-color:#9DAAC5"
   id="stop86" />
	</linearGradient>
	<path
   fill="url(#XMLID_16_)"
   d="M10,59c0,0.193,0.009,0.385,0.011,0.579C10.238,29.997,34.267,6,63.901,6V5   C34.125,5,10,29.224,10,59z"
   id="path88" />
<g
   id="layer1"
   inkscape:label="Livello 1"
   transform="matrix(0.576625,0,0,0.484501,34.320262,111.23247)"><g
     transform="matrix(2.0998076,0,0,1.9830357,-40.066805,-171.11713)"
     id="g2820"><rect
       style="opacity:1;fill:url(#linearGradient2846);fill-opacity:1;stroke:#888a85;stroke-width:1.00000024;stroke-miterlimit:4;stroke-dasharray:none;stroke-opacity:1"
       id="rect1915"
       width="33.000038"
       height="30.499985"
       x="13.5"
       y="3"
       rx="2"
       ry="2" /><path
       style="fill:url(#linearGradient2848);fill-opacity:1;stroke:#204a87;stroke-width:1.00000048;stroke-miterlimit:4;stroke-opacity:1"
       d="M 13.499999,8.030334 L 13.499999,4.500005 C 13.499999,3.392005 14.391999,2.500005 15.499999,2.500005 L 44.499999,2.500005 C 45.607999,2.500005 46.499999,3.392005 46.499999,4.500005 L 46.499999,8.030334"
       id="path1917"
       sodipodi:nodetypes="cccccc" /><rect
       style="opacity:0.8;fill:none;fill-opacity:1;stroke:url(#linearGradient2850);stroke-width:1.00000083;stroke-miterlimit:4;stroke-dasharray:none;stroke-opacity:1"
       id="rect1919"
       width="31.000004"
       height="29.000008"
       x="14.5"
       y="3.5000076"
       rx="0.99539089"
       ry="0.99539089" /></g><g
     id="g2453"
     transform="matrix(2.0998076,0,0,1.9830357,-15.787592,-133.96549)"><rect
       ry="2"
       rx="2"
       y="3"
       x="13.5"
       height="30.499985"
       width="33.000038"
       id="rect2455"
       style="opacity:1;fill:url(#linearGradient2461);fill-opacity:1;stroke:#888a85;stroke-width:1.00000024;stroke-miterlimit:4;stroke-dasharray:none;stroke-opacity:1" /><path
       sodipodi:nodetypes="cccccc"
       id="path2457"
       d="M 13.499999,8.030334 L 13.499999,4.500005 C 13.499999,3.392005 14.391999,2.500005 15.499999,2.500005 L 44.499999,2.500005 C 45.607999,2.500005 46.499999,3.392005 46.499999,4.500005 L 46.499999,8.030334"
       style="fill:url(#linearGradient2463);fill-opacity:1;stroke:#204a87;stroke-width:1.00000048;stroke-miterlimit:4;stroke-opacity:1" /><rect
       ry="0.99539089"
       rx="0.99539089"
       y="3.5000076"
       x="14.5"
       height="29.000008"
       width="31.000004"
       id="rect2459"
       style="opacity:0.8;fill:none;fill-opacity:1;stroke:url(#linearGradient2465);stroke-width:1.00000083;stroke-miterlimit:4;stroke-dasharray:none;stroke-opacity:1" /></g><g
     transform="matrix(2.0998076,0,0,1.9830357,15.428537,-96.813852)"
     id="g2467"><rect
       style="opacity:1;fill:url(#linearGradient2475);fill-opacity:1;stroke:#888a85;stroke-width:1.00000024;stroke-miterlimit:4;stroke-dasharray:none;stroke-opacity:1"
       id="rect2469"
       width="33.000038"
       height="30.499985"
       x="13.5"
       y="3"
       rx="2"
       ry="2" /><path
       style="fill:url(#linearGradient2477);fill-opacity:1;stroke:#204a87;stroke-width:1.00000048;stroke-miterlimit:4;stroke-opacity:1"
       d="M 13.499999,8.030334 L 13.499999,4.500005 C 13.499999,3.392005 14.391999,2.500005 15.499999,2.500005 L 44.499999,2.500005 C 45.607999,2.500005 46.499999,3.392005 46.499999,4.500005 L 46.499999,8.030334"
       id="path2471"
       sodipodi:nodetypes="cccccc" /><rect
       style="opacity:0.8;fill:none;fill-opacity:1;stroke:url(#linearGradient2479);stroke-width:1.00000083;stroke-miterlimit:4;stroke-dasharray:none;stroke-opacity:1"
       id="rect2473"
       width="31.000004"
       height="29.000008"
       x="14.5"
       y="3.5000076"
       rx="0.99539089"
       ry="0.99539089" /></g></g></svg>
